<?xml version="1.0" encoding="UTF-8" standalone="no"?>
<svg
   xmlns:dc="http://purl.org/dc/elements/1.1/"
   xmlns:cc="http://creativecommons.org/ns#"
   xmlns:rdf="http://www.w3.org/1999/02/22-rdf-syntax-ns#"
   xmlns:svg="http://www.w3.org/2000/svg"
   xmlns="http://www.w3.org/2000/svg"
   viewBox="180 100 20 190"
   height="377.94666"
   width="377.94666"
   xml:space="preserve"
   id="svg2"
   version="1.1"><metadata
     id="metadata8"><rdf:RDF><cc:Work
         rdf:about=""><dc:format>image/svg+xml</dc:format><dc:type
           rdf:resource="http://purl.org/dc/dcmitype/StillImage" /></cc:Work></rdf:RDF></metadata><defs
     id="defs6" /><g
     transform="matrix(1.3333333,0,0,-1.3333333,0,377.94667)"
     id="g10"><g
       transform="scale(0.1)"
       id="g12"><path
         id="path14"
         style="fill:#5d5752;fill-opacity:0;fill-rule:nonzero;stroke:none"
         d="M 2919.69,-85.0313 H -85.0391 V 2919.69 H 2919.69 V -85.0313" /><path
         id="path16"
         style="fill:#ffffff;fill-opacity:1;fill-rule:nonzero;stroke:none"
         d="m 1405.49,1202.48 c 0,-46.63 18.39,-62.06 51.88,-62.06 26.93,0 44.01,12.14 55.17,26.92 -10.84,11.49 -22.66,21.01 -42.37,34.15 -23.96,15.76 -44.32,28.57 -59.75,42.03 -3.29,-6.89 -4.93,-18.39 -4.93,-41.04" /><path
         id="path18"
         style="fill:#ffffff;fill-opacity:1;fill-rule:nonzero;stroke:none"
         d="m 1356.11,1177.93 v -21.28 h -66.38 v -21.49 h 4.2 117.48 c -28.17,5.64 -49.16,18.9 -55.3,42.77" /><path
         id="path20"
         style="fill:#ffffff;fill-opacity:1;fill-rule:nonzero;stroke:none"
         d="m 1480.03,1322.99 c 0,26.27 -9.86,38.74 -28.57,38.74 -13.79,0 -30.21,-6.89 -30.21,-33.48 0,-20.36 8.21,-31.86 38.09,-52.54 20.37,10.83 20.69,25.6 20.69,47.28" /><path
         id="path22"
         style="fill:#ffffff;fill-opacity:1;fill-rule:nonzero;stroke:none"
         d="m 1576.91,1156.65 v 109.86 h -22.34 c -0.33,-18.71 -1.97,-37.1 -6.24,-55.49 15.76,-17.41 28.57,-34.48 28.57,-66.66 0,-3.09 -0.19,-6.15 -0.51,-9.2 h 62.39 3.71 v 21.49 h -3.71 -61.87" /><path
         id="path24"
         style="fill:#ffffff;fill-opacity:1;fill-rule:nonzero;stroke:none"
         d="m 2089.11,1905.16 v 21.48 h -353.9 v -21.48 h 66.71 v -350.52 h -225.01 v 350.52 h 61.87 3.71 v 21.48 l -3.71,-0.28 v 0.28 h -301.89 l -135.68,-582.3 -150.38,582.3 H 745.547 v -21.48 h 62.187 v -748.51 h -62.187 v -21.49 h 153.769 v 21.49 h -62.187 v 710.07 h 4.519 l 199.002,-731.56 h 141.34 l 169.6,728.16 h 4.52 v -653.85 c 4.75,19.05 19.28,32.21 49.71,38.98 -18.39,16.75 -28.9,33.5 -28.9,56.81 0,44.99 37.11,63.38 75.53,63.38 45.97,0 65.67,-18.07 65.67,-43.68 0,-22.66 -16.74,-40.72 -52.87,-53.2 7.23,-4.92 15.76,-10.5 25.62,-16.75 17.4,-11.16 35.13,-22.32 49.91,-36.44 3.61,16.75 5.25,32.83 5.58,47.94 h -25.94 v 6.57 h 56.49 v 252.17 h 225.01 v -368.6 h -66.71 v -21.49 h 353.9 v 21.49 h -66.71 v 748.51 h 66.71" /><path
         id="path26"
         style="fill:#ffffff;fill-opacity:1;fill-rule:nonzero;stroke:none"
         d="m 1476.25,1135.16 h 55.9 c -3.18,9.57 -8.28,17.56 -14.03,25.28 -9.66,-11.04 -22.7,-20.52 -41.87,-25.28" /><g
         transform="scale(10)"
         id="g28"><text
           id="text32"
           style="font-variant:normal;font-weight:300;font-size:17.03479958px;font-family:Calibri;-inkscape-font-specification:Calibri-Light;writing-mode:lr-tb;fill:#ffffff;fill-opacity:1;fill-rule:nonzero;stroke:none"
           transform="matrix(1,0,0,-1,74.5535,92.3852)"><tspan
             id="tspan30"
             y="0"
             x="0">P</tspan></text>
<text
           id="text36"
           style="font-variant:normal;font-weight:300;font-size:14.72799969px;font-family:Calibri;-inkscape-font-specification:Calibri-Light;writing-mode:lr-tb;fill:#ffffff;fill-opacity:1;fill-rule:nonzero;stroke:none"
           transform="matrix(1,0,0,-1,84.05584,92.3852)"><tspan
             id="tspan34"
             y="0"
             x="0 8.4316397 18.80464 27.019484 34.955032 43.385704 51.242149 58.88961">ROPERTY </tspan></text>
<text
           id="text40"
           style="font-variant:normal;font-weight:300;font-size:17.03479958px;font-family:Calibri;-inkscape-font-specification:Calibri-Light;writing-mode:lr-tb;fill:#ffffff;fill-opacity:1;fill-rule:nonzero;stroke:none"
           transform="matrix(1,0,0,-1,147.01094,92.3852)"><tspan
             id="tspan38"
             y="0"
             x="0">S</tspan></text>
<text
           id="text44"
           style="font-variant:normal;font-weight:300;font-size:14.72799969px;font-family:Calibri;-inkscape-font-specification:Calibri-Light;writing-mode:lr-tb;fill:#ffffff;fill-opacity:1;fill-rule:nonzero;stroke:none"
           transform="matrix(1,0,0,-1,155.57305,92.3852)"><tspan
             id="tspan42"
             y="0"
             x="0 7.9355497 16.294943 25.193378 29.525414 38.143566 45.934597">ERVICES</tspan></text>
</g></g></g></svg>